# ProBuilder 6.0.5
# https://unity3d.com/unity/features/worldbuilding/probuilder
# 30/03/2025 11:22:16 a. m.

mtllib ./DoorFrame.mtl
o DoorFrame

g Pared (1)
v 0.075 0 -0.3
v -0.07499999 0 -0.3
v 0.075 0.9 -0.3
v -0.07499999 0.9 -0.3
v -0.07499999 0 -0.35
v -0.07499999 0.9 -0.35
v 0.075 0 -0.35
v 0.075 0.9 -0.35
v 0.075 1 -0.3
v -0.07499999 1 -0.3
v 0.075 1 -0.35
v -0.07499999 1 -0.35
v 0.075 0.9 0.3500001
v -0.07499999 0.9 0.3500001
v 0.075 1 0.3500001
v -0.07499999 1 0.3500001
v 0.075 0.9 0.3000001
v -0.07499999 0.9 0.3000001
v 0.075 1 0.3000001
v -0.07499999 1 0.3000001
v 0.075 0 0.3000001
v -0.07499999 0 0.3000001
v 0.075 0 0.3500001
v -0.07499999 0 0.3500001

vt 0.15 0.1
vt 0 0.1
vt 0.15 1
vt 0 1
vt 0.05000007 0.1
vt 0.05000007 1
vt 0 0.9499999
vt 0.15 0.9499999
vt 0.15 0.9
vt 0 0.9
vt 0.05000007 0.9
vt 0.15 0.4
vt 0 0.4
vt 0.6 1
vt 0.6 0.9

vn 0 0 1
vn -1 0 0
vn 0 0 -1
vn 1 0 0
vn 0 1 0
vn 0 -1 0

usemtl ProBuilderDefault
f 3/3/1 4/4/1 2/2/1 1/1/1
f 4/6/2 6/4/2 5/2/2 2/5/2
f 6/3/3 8/4/3 7/2/3 5/1/3
f 8/6/4 3/4/4 1/2/4 7/5/4
f 11/7/5 12/8/5 10/3/5 9/4/5
f 1/3/6 2/4/6 5/7/6 7/8/6
f 15/3/1 16/4/1 14/10/1 13/9/1
f 11/6/4 9/4/4 3/10/4 8/11/4
f 10/6/2 12/4/2 6/10/2 4/11/2
f 12/3/3 11/4/3 8/10/3 6/9/3
f 17/3/6 18/4/6 4/13/6 3/12/6
f 19/4/4 17/10/4 3/15/4 9/14/4
f 18/15/2 20/14/2 10/4/2 4/10/2
f 20/3/5 19/4/5 9/13/5 10/12/5
f 23/3/6 24/4/6 22/7/6 21/8/6
f 15/4/4 13/10/4 17/11/4 19/6/4
f 14/11/2 16/6/2 20/4/2 18/10/2
f 16/3/5 15/4/5 19/7/5 20/8/5
f 21/2/3 22/1/3 18/3/3 17/4/3
f 23/2/4 21/5/4 17/6/4 13/4/4
f 22/2/2 24/5/2 14/6/2 18/4/2
f 24/2/1 23/1/1 13/3/1 14/4/1

