# ProBuilder 6.0.5
# https://unity3d.com/unity/features/worldbuilding/probuilder
# 30/03/2025 11:21:52 a. m.

mtllib ./Wall.mtl
o Wall

g Pared
v 0.075 0 0.3500001
v -0.075 0 0.3500001
v 0.075 1 0.3500001
v -0.075 1 0.3500001
v -0.075 0 -0.35
v -0.075 1 -0.35
v 0.075 0 -0.35
v 0.075 1 -0.35

vt 0.15 0
vt 0 0
vt 0.15 1
vt 0 1
vt 0.7000001 0
vt 0.7000001 1
vt 0 0.2999999
vt 0.15 0.2999999

vn 0 0 1
vn -1 0 0
vn 0 0 -1
vn 1 0 0
vn 0 1 0
vn 0 -1 0

usemtl ProBuilderDefault
f 3/3/1 4/4/1 2/2/1 1/1/1
f 4/6/2 6/4/2 5/2/2 2/5/2
f 6/3/3 8/4/3 7/2/3 5/1/3
f 8/6/4 3/4/4 1/2/4 7/5/4
f 8/7/5 6/8/5 4/3/5 3/4/5
f 1/3/6 2/4/6 5/7/6 7/8/6

